<svg width="19" height="17" viewBox="0 0 19 17" fill="none" xmlns="http://www.w3.org/2000/svg">
<path d="M17.9972 6.94281H1.00278C0.448959 6.94281 0 7.49479 0 8.1757V8.30548C0 8.98639 0.448959 9.53837 1.00278 9.53837H17.9972C18.551 9.53837 19 8.98639 19 8.30548V8.1757C19 7.49479 18.551 6.94281 17.9972 6.94281Z" fill="#F2EAEC"/>
<path d="M17.9972 6.94281H1.00278C0.448959 6.94281 0 7.49479 0 8.1757V8.30548C0 8.98639 0.448959 9.53837 1.00278 9.53837H17.9972C18.551 9.53837 19 8.98639 19 8.30548V8.1757C19 7.49479 18.551 6.94281 17.9972 6.94281Z" stroke="white"/>
<path d="M17.9972 13.4318H1.00278C0.448959 13.4318 0 13.9838 0 14.6647V14.7945C0 15.4754 0.448959 16.0274 1.00278 16.0274H17.9972C18.551 16.0274 19 15.4754 19 14.7945V14.6647C19 13.9838 18.551 13.4318 17.9972 13.4318Z" fill="#F2EAEC"/>
<path d="M17.9972 13.4318H1.00278C0.448959 13.4318 0 13.9838 0 14.6647V14.7945C0 15.4754 0.448959 16.0274 1.00278 16.0274H17.9972C18.551 16.0274 19 15.4754 19 14.7945V14.6647C19 13.9838 18.551 13.4318 17.9972 13.4318Z" stroke="white"/>
<path d="M17.9972 0.453979H1.00278C0.448959 0.453979 0 1.00596 0 1.68687V1.81665C0 2.49756 0.448959 3.04954 1.00278 3.04954H17.9972C18.551 3.04954 19 2.49756 19 1.81665V1.68687C19 1.00596 18.551 0.453979 17.9972 0.453979Z" fill="#F2EAEC"/>
<path d="M17.9972 0.453979H1.00278C0.448959 0.453979 0 1.00596 0 1.68687V1.81665C0 2.49756 0.448959 3.04954 1.00278 3.04954H17.9972C18.551 3.04954 19 2.49756 19 1.81665V1.68687C19 1.00596 18.551 0.453979 17.9972 0.453979Z" stroke="white"/>
</svg>
