<svg xmlns="http://www.w3.org/2000/svg" width="40" height="39" viewBox="0 0 40 39" fill="none">
  <path d="M25.7173 2.74587C25.3432 3.98273 24.9854 5.41167 24.4642 6.78284C24.1864 7.51059 23.4267 7.70111 22.6506 7.46686C21.9104 7.24354 21.4628 6.68758 21.6196 5.97545C21.9301 4.57773 22.314 3.18626 22.7927 1.83384C23.0329 1.1545 23.7306 0.881206 24.4838 1.06236C25.2648 1.24977 25.6732 1.77918 25.719 2.74743L25.7173 2.74587Z" fill="#F4F4F4"/>
  <path d="M11.7792 3.60171C11.6419 2.94112 11.4949 2.30551 11.3821 1.66365C11.258 0.962454 11.5161 0.64543 12.2938 0.901548C14.6499 1.68083 17.0141 2.44294 19.3636 3.24096C20.1641 3.5127 20.2279 3.87657 19.576 4.42629C17.7281 5.98485 15.8671 7.52937 13.9914 9.0567C13.3183 9.60486 12.9899 9.48617 12.7971 8.67409C12.6386 8.00881 12.5209 7.33572 12.3837 6.65794C6.83675 8.53354 0.711403 16.1749 3.64582 25.253C6.41031 33.8064 17.0696 39.0506 27.0313 34.125C27.4773 34.873 27.9266 35.6273 28.4625 36.5237C23.226 39.2052 17.8343 39.7065 12.3543 37.6607C5.17184 34.9792 0.840478 29.86 0.111776 22.5232C-0.760706 13.7465 3.50694 7.53718 11.7775 3.60171H11.7792Z" fill="#F4F4F4"/>
  <path d="M19.1824 23.8771C17.2904 23.899 15.6974 22.4232 15.6533 20.6116C15.6108 18.8219 17.0437 17.2634 18.9194 17.2524C19.7346 17.2478 20.2395 16.9698 20.7542 16.4482C21.6675 15.519 22.6217 14.6257 23.5824 13.7402C24.4761 12.9156 25.6411 12.8969 26.4073 13.659C27.1589 14.4086 27.1262 15.4409 26.2783 16.2811C25.28 17.2696 24.2163 18.1973 23.254 19.2171C22.9305 19.5591 22.687 20.0916 22.6609 20.5492C22.5531 22.4076 21.0891 23.8553 19.1824 23.8771Z" fill="#F4F4F4"/>
  <path d="M29.936 11.541C29.5946 11.2568 28.9966 10.985 28.8299 10.5587C28.6616 10.1261 28.7303 9.39055 29.0244 9.05167C29.9148 8.02876 30.9327 7.09799 31.9686 6.20158C32.5682 5.68153 33.3149 5.72526 33.9292 6.23906C34.5386 6.74661 34.7674 7.49934 34.2445 8.07717C33.2234 9.20471 32.0601 10.2167 30.9262 11.2474C30.753 11.4051 30.4229 11.4051 29.936 11.5426V11.541Z" fill="#F4F4F4"/>
  <path d="M33.9734 22.832C35.7608 23.324 37.2901 23.6691 38.7557 24.1782C39.5252 24.4453 39.6886 25.2058 39.437 25.9273C39.1968 26.6176 38.6086 27.0408 37.8538 26.8862C36.4242 26.5941 34.9994 26.2459 33.6156 25.8008C32.8624 25.5587 32.4686 24.8466 32.779 24.1329C33.0061 23.6113 33.5894 23.2318 33.9717 22.832H33.9734Z" fill="#F4F4F4"/>
  <path d="M34.0309 18.322C33.6502 17.9456 33.0342 17.5646 32.7761 17.0274C32.4624 16.373 32.8333 15.639 33.5342 15.4141C34.9818 14.9503 36.4735 14.5849 37.9718 14.3038C38.7135 14.1648 39.2854 14.6317 39.47 15.3579C39.6595 16.1044 39.4341 16.8056 38.6563 17.0601C37.2414 17.5224 35.7808 17.8535 34.0293 18.322H34.0309Z" fill="#F4F4F4"/>
  <path d="M30.1047 29.5571C30.6079 29.8179 31.0164 29.9413 31.2974 30.1927C32.2189 31.0173 33.1143 31.8716 33.9835 32.7461C34.6615 33.4301 34.6599 34.236 34.0488 34.8481C33.441 35.4556 32.5457 35.5103 31.8513 34.8903C30.8791 34.022 29.8906 33.1521 29.0623 32.1667C28.7535 31.7997 28.6832 31.0345 28.8597 30.5754C29.0198 30.1553 29.6586 29.9007 30.1063 29.5587L30.1047 29.5571Z" fill="#F4F4F4"/>
</svg>