<svg xmlns="http://www.w3.org/2000/svg" width="46" height="45" viewBox="0 0 46 45" fill="none">
  <path d="M6.28926 11.6891C7.06408 11.7052 7.65738 11.9992 7.93806 12.706C8.78179 14.825 9.62552 16.944 10.4272 19.0774C10.6525 19.6766 10.5819 20.2775 10.1062 20.8124C9.47258 21.5257 8.86415 22.2631 8.29606 23.0246C8.1532 23.2157 8.09101 23.5804 8.18009 23.7925C9.72637 27.4842 12.0307 30.6988 14.9518 33.5214C15.2896 33.8476 15.5989 33.9134 16.051 33.7688C16.9283 33.4877 17.8275 33.266 18.7183 33.0218C19.4158 32.8306 20.0259 32.9463 20.5772 33.4331C22.2462 34.9062 23.9387 36.3537 25.6077 37.8285C26.5035 38.6205 26.5388 39.4639 25.7741 40.3683C24.5908 41.7692 23.1706 42.8922 21.5235 43.7661C20.8495 44.1227 20.2327 44.1292 19.5536 43.7725C9.09273 38.2815 2.68239 29.963 0.406671 18.7545C0.225151 17.8613 0.0352278 16.9584 0.00161299 16.054C-0.0168751 15.556 0.122626 14.886 0.468859 14.5712C2.02354 13.1526 3.89757 12.2273 5.99009 11.7245C6.08925 11.7004 6.19514 11.6987 6.29094 11.6875L6.28926 11.6891Z" fill="#F4F4F4"/>
  <path d="M40.0201 38.1434C39.8755 36.9161 39.7478 35.7754 39.6066 34.6364C39.4822 33.634 39.294 32.6347 39.2385 31.6291C39.2167 31.2306 39.3679 30.7326 39.6301 30.4258C42.7748 26.7389 44.1278 22.5025 43.674 17.8083C42.8588 9.36458 35.9224 3.23257 28.1305 2.37952C21.0109 1.60037 15.2897 4.00851 10.9903 9.49149C10.8979 9.61037 10.8189 9.73729 10.7231 9.85456C10.3718 10.2867 9.93314 10.4297 9.44741 10.0939C8.95832 9.75657 8.93647 9.26016 9.2911 8.86175C10.4407 7.56691 11.5147 6.17568 12.8408 5.06398C16.6712 1.85419 21.226 0.342477 26.3019 0.488669C35.7358 0.760167 43.3042 7.20223 45.0942 15.4789C46.3312 21.2013 45.0219 26.3806 41.4016 31.0636C41.173 31.3592 41.0571 31.8363 41.0991 32.2074C41.3596 34.5095 41.6991 36.8052 41.9596 39.1073C42.0016 39.4784 41.8941 40.0552 41.6369 40.2158C41.3411 40.4006 40.7478 40.3475 40.3764 40.1933C38.1275 39.2599 35.914 38.2494 33.6669 37.3145C33.3139 37.1683 32.8282 37.1924 32.4366 37.2743C31.6096 37.4494 30.8079 37.7354 29.986 37.941C29.3843 38.092 28.8683 37.941 28.7255 37.3C28.5893 36.6879 29.0297 36.4148 29.5692 36.2574C30.576 35.9618 31.5727 35.6244 32.5945 35.3899C32.9811 35.3015 33.4702 35.3529 33.84 35.5039C35.6871 36.2654 37.509 37.0831 39.341 37.8783C39.5242 37.9587 39.7158 38.0245 40.015 38.1418L40.0201 38.1434Z" fill="#F4F4F4"/>
  <path d="M25.7322 31.7819C18.4882 31.7626 12.8527 26.2989 12.7838 19.4279C12.7199 13.1192 18.1285 7.04018 25.8229 7.04982C32.877 7.05946 38.6722 12.6453 38.6772 19.407C38.6806 26.27 32.8955 31.8012 25.7322 31.7819ZM25.796 8.77359C19.6025 8.77198 14.5519 13.5385 14.5401 19.399C14.5267 25.2739 19.5823 30.1192 25.7271 30.1224C31.7173 30.1256 36.8049 25.3013 36.8956 19.6898C36.9931 13.6766 31.877 8.76234 25.7977 8.77359H25.796Z" fill="#F4F4F4"/>
  <path d="M26.6346 15.3506C26.6346 16.0173 26.633 16.6856 26.6346 17.3523C26.638 18.2374 26.9809 18.5587 27.9305 18.5603C29.3776 18.5636 30.8264 18.5652 32.2735 18.5603C32.9088 18.5571 33.4198 18.7033 33.4601 19.4214C33.4921 19.9982 33.1004 20.3034 32.3055 20.3098C30.8314 20.3211 29.3574 20.2921 27.8851 20.3291C27.5691 20.3371 27.2078 20.4897 26.9573 20.6825C26.1943 21.2641 25.1606 21.2753 24.4883 20.6504C23.7925 20.003 23.7976 18.9941 24.4379 18.2374C24.6396 17.9997 24.7825 17.6478 24.7909 17.3426C24.8278 15.9594 24.806 14.5746 24.811 13.1914C24.8127 12.6083 24.9237 12.0781 25.6934 12.038C26.3153 12.0058 26.6296 12.3994 26.6363 13.2043C26.643 13.9208 26.6363 14.6373 26.6363 15.3538L26.6346 15.3506Z" fill="#F4F4F4"/>
</svg>