<svg xmlns="http://www.w3.org/2000/svg" width="43" height="42" viewBox="0 0 43 42" fill="none">
  <path d="M21.3165 30.9437C18.1803 30.9437 15.0442 30.927 11.9096 30.9572C11.2666 30.9633 11.0849 30.7458 11.1149 30.1795C11.1718 29.0499 11.0912 27.9038 11.2524 26.7893C11.5494 24.74 13.4358 23.2525 15.6193 23.245C19.449 23.2329 23.2787 23.2314 27.1101 23.245C29.5716 23.254 31.5354 25.0964 31.616 27.4643C31.6492 28.4051 31.6049 29.349 31.6286 30.2898C31.6413 30.7836 31.4612 30.9557 30.9271 30.9527C27.7246 30.9316 24.5206 30.9421 21.3181 30.9421L21.3165 30.9437Z" fill="#F4F4F4"/>
  <path d="M16.3301 16.4312C16.3301 13.7386 18.5909 11.5564 21.3953 11.564C24.2739 11.5715 26.5064 13.7371 26.5111 16.5218C26.5158 19.1086 24.1602 21.2893 21.3906 21.2877C18.5593 21.2877 16.3285 19.1479 16.3301 16.4312Z" fill="#F4F4F4"/>
  <path d="M0.913568 12.378C0.409573 12.378 0.00195312 11.9869 0.00195312 11.5067V5.38612C0.00195312 2.86571 2.14749 0.814941 4.78438 0.814941H10.8213C11.3253 0.814941 11.7329 1.20607 11.7329 1.68629C11.7329 2.16651 11.3237 2.55764 10.8213 2.55764H4.78438C3.1539 2.55764 1.82676 3.82615 1.82676 5.38461V11.5052C1.82676 11.9869 1.41756 12.3765 0.915148 12.3765L0.913568 12.378Z" fill="#F4F4F4"/>
  <path d="M9.80341 41.7608H4.78242C2.14553 41.7608 0 39.7101 0 37.1897V32.8767C0 32.395 0.4092 32.0054 0.911615 32.0054C1.41403 32.0054 1.82323 32.3965 1.82323 32.8767V37.1897C1.82323 38.7481 3.15036 40.0166 4.78084 40.0166H9.80183C10.3058 40.0166 10.7134 40.4078 10.7134 40.888C10.7134 41.3682 10.3042 41.7593 9.80183 41.7593L9.80341 41.7608Z" fill="#F4F4F4"/>
  <path d="M38.0589 41.7608H33.1738C32.6698 41.7608 32.2622 41.3697 32.2622 40.8894C32.2622 40.4092 32.6714 40.0181 33.1738 40.0181H38.0589C39.6894 40.0181 41.0166 38.7496 41.0166 37.1911V31.7063C41.0166 31.2246 41.4258 30.835 41.9282 30.835C42.4306 30.835 42.8398 31.2261 42.8398 31.7063V37.1911C42.8398 39.7115 40.6943 41.7623 38.0574 41.7623L38.0589 41.7608Z" fill="#F4F4F4"/>
  <path d="M41.9277 11.4135C41.4237 11.4135 41.016 11.0224 41.016 10.5422V5.38656C41.016 3.8281 39.6889 2.55959 38.0584 2.55959H32.9189C32.4149 2.55959 32.0073 2.16847 32.0073 1.68824C32.0073 1.20802 32.4165 0.816895 32.9189 0.816895H38.0584C40.6953 0.816895 42.8408 2.86766 42.8408 5.38807V10.5437C42.8408 11.0254 42.4316 11.415 41.9292 11.415L41.9277 11.4135Z" fill="#F4F4F4"/>
</svg>