<svg xmlns="http://www.w3.org/2000/svg" width="48" height="36" viewBox="0 0 48 36" fill="none">
  <path d="M11.9467 6.68014C13.2455 4.84951 14.3953 3.13704 15.6484 1.49903C16.3546 0.576432 17.313 0.595855 18.009 1.50388C19.2655 3.1419 20.4136 4.8576 21.5871 6.51019C23.2602 6.11525 25.2245 5.5536 27.2278 5.21046C28.7739 4.94663 29.5156 5.6232 29.5071 7.27578C29.4766 12.7531 25.084 17.0068 18.5458 17.7319C11.6977 18.491 5.77257 15.1907 4.48051 9.56771C3.41706 4.94501 4.33488 4.78962 8.63101 5.47267C9.85871 5.66852 11.0068 6.32405 11.9467 6.6769V6.68014ZM16.8287 15.4772C20.6879 11.9211 20.6862 5.93397 16.8219 2.84408C12.9424 5.97767 12.9458 11.9357 16.8287 15.4772ZM27.7003 7.02166C24.9959 6.79991 21.8462 7.98149 21.3992 9.40261C20.7286 11.5311 20.141 13.6822 19.5364 15.7653C23.9359 15.7135 27.8425 11.7156 27.7003 7.02166ZM6.00287 6.58626C5.65742 11.5942 9.73002 15.7734 14.2768 15.7669C13.6536 14.0658 12.7188 12.363 12.4648 10.5712C12.2447 9.019 11.4844 8.2178 10.1822 7.74193C8.89518 7.27092 7.52861 6.999 6.00287 6.58626Z" fill="#F4F4F4"/>
  <path d="M16.9132 32.1392C19.7717 31.9951 22.6267 31.809 25.4869 31.7216C28.2454 31.6358 31.0039 31.8057 33.5863 32.8125C34.7379 33.2608 35.742 34.0491 36.8309 34.6528C37.2187 34.8681 37.6539 35.1093 38.0806 35.14C39.8637 35.2614 41.6249 35.1028 43.2962 34.4473C45.7889 33.4696 47.064 31.6665 47.2317 29.1075C47.2791 28.397 46.9692 28.0716 46.2935 27.7965C43.1472 26.5145 39.9975 25.2294 36.9139 23.8196C35.571 23.2061 34.3535 22.3224 33.1241 21.5001C31.1326 20.1697 29.1293 19.8459 26.6976 20.5468C24.3235 21.2315 21.7733 21.361 19.2992 21.7187C18.0173 21.9048 16.7253 22.0343 15.4451 22.2398C14.9895 22.3127 14.4392 22.4211 14.1395 22.7092C13.4469 23.3761 12.8254 23.0799 12.0752 22.8695C9.24896 22.0796 6.40576 21.3464 3.55578 20.6358C3.05623 20.5112 2.49572 20.5452 1.97077 20.5937C0.201178 20.7572 -0.584555 22.3515 0.487361 23.7225C0.909015 24.2615 1.5525 24.705 2.18922 25.019C4.36353 26.0937 6.61574 27.0309 8.76973 28.1396C10.8712 29.2208 12.8813 30.4655 14.9506 31.6034C15.545 31.9304 16.2105 32.1392 16.8438 32.4014L16.9099 32.1375L16.9132 32.1392ZM16.8607 25.7328C16.8574 25.7943 16.854 25.8542 16.8506 25.9157C16.3358 25.7991 15.7905 25.7473 15.3164 25.5434C14.9506 25.3864 14.6763 25.04 14.3613 24.7778C14.7 24.4282 15.02 24.0591 15.3892 23.7419C15.5247 23.6254 15.7753 23.6124 15.9785 23.5881C17.4128 23.4133 18.8539 23.2806 20.2831 23.0718C22.6132 22.7319 25.0009 22.5571 27.2395 21.9145C29.2733 21.3302 30.8685 21.6685 32.4331 22.8468C32.8954 23.1948 33.3679 23.5347 33.8658 23.8309C37.3643 25.914 41.1202 27.4938 44.9676 28.8761C45.6297 29.114 45.7432 29.3859 45.5959 29.988C45.2284 31.4901 44.3055 32.5988 42.8102 33.031C41.42 33.434 39.9298 33.5263 38.4802 33.7238C38.277 33.7513 37.9925 33.6542 37.8351 33.5198C35.0613 31.1793 31.6864 30.4008 28.1455 30.3684C24.6097 30.336 21.0722 30.6128 17.5347 30.7245C17.0284 30.7407 16.4035 30.7439 16.0242 30.4914C11.9533 27.7803 7.42856 25.8833 3.0122 23.7937C2.62103 23.6092 2.17906 23.4117 1.92843 23.0977C1.71676 22.8339 1.6304 22.3612 1.72184 22.0408C1.77603 21.8481 2.28066 21.6555 2.57531 21.6652C3.2188 21.6863 3.88261 21.7624 4.49223 21.9485C6.90869 22.6882 9.30653 23.4845 11.7145 24.2518C12.3479 24.4541 12.8389 24.6774 12.9897 25.4463C13.0709 25.8623 13.584 26.2944 14.0158 26.534C15.1318 27.1539 16.3443 27.3967 17.6685 27.2575C19.2501 27.0924 20.847 27.0098 22.4371 27.0098C23.0856 27.0098 23.7715 27.2397 24.3692 27.51C24.862 27.7317 25.2989 28.0166 25.6748 27.4825C26.0829 26.903 25.6799 26.4547 25.1533 26.2815C24.2439 25.982 23.2922 25.6599 22.3473 25.6259C20.5252 25.558 18.6947 25.6842 16.8675 25.7295L16.8607 25.7328Z" fill="#F4F4F4"/>
</svg>